<svg xmlns="http://www.w3.org/2000/svg" version="1.1" xmlns:xlink="http://www.w3.org/1999/xlink" xmlns:svgjs="http://svgjs.dev/svgjs" width="1440" height="560" preserveAspectRatio="none" viewBox="0 0 1440 560"><g mask="url(&quot;#SvgjsMask1043&quot;)" fill="none"><rect width="1440" height="560" x="0" y="0" fill="url(&quot;#SvgjsLinearGradient1044&quot;)"></rect><path d="M1488 560L0 560 L0 281.98Q23.18 233.16, 72 256.34Q126.14 238.48, 144 292.62Q185.46 262.08, 216 303.54Q217.84 233.38, 288 235.22Q339.49 166.71, 408 218.2Q519.68 209.88, 528 321.57Q571.07 244.64, 648 287.71Q680.93 200.63, 768 233.56Q822.83 168.38, 888 223.21Q994.75 209.96, 1008 316.71Q1022.33 259.04, 1080 273.38Q1122.54 243.92, 1152 286.46Q1160.01 222.47, 1224 230.48Q1292.19 178.67, 1344 246.86Q1392.17 223.03, 1416 271.2Q1424.24 207.44, 1488 215.67z" fill="#182f5d"></path><path d="M1464 560L0 560 L0 333.17Q50.72 311.89, 72 362.62Q86.23 304.85, 144 319.08Q194.8 249.88, 264 300.67Q327 291.67, 336 354.66Q425.83 324.49, 456 414.32Q473.53 311.85, 576 329.37Q623.06 256.43, 696 303.48Q781.63 269.11, 816 354.74Q859.84 326.58, 888 370.42Q965.21 327.63, 1008 404.85Q1016.17 341.02, 1080 349.2Q1092.33 289.52, 1152 301.85Q1239.64 317.5, 1224 405.14Q1269.85 330.99, 1344 376.84Q1412.67 325.51, 1464 394.18z" fill="#25467d"></path><path d="M1512 560L0 560 L0 437.05Q65.28 382.33, 120 447.6Q145.64 401.25, 192 426.89Q286.1 400.99, 312 495.08Q332.97 444.05, 384 465.03Q428.56 437.58, 456 482.14Q472.62 378.76, 576 395.38Q618.73 366.11, 648 408.83Q740.61 381.44, 768 474.05Q819.8 405.85, 888 457.65Q968.22 417.87, 1008 498.09Q1038.51 456.6, 1080 487.11Q1098.94 386.06, 1200 405Q1276.25 361.25, 1320 437.5Q1361.55 407.04, 1392 448.59Q1423.88 360.46, 1512 392.34z" fill="#356cb1"></path><path d="M1464 560L0 560 L0 579.25Q24.08 483.33, 120 507.41Q189.57 456.99, 240 526.56Q310.13 476.69, 360 546.83Q401.02 515.85, 432 556.87Q438.5 491.37, 504 497.86Q570.92 444.78, 624 511.7Q701.55 469.25, 744 546.79Q799.87 530.65, 816 586.52Q843.05 541.57, 888 568.61Q908.25 468.87, 1008 489.12Q1052.38 461.5, 1080 505.88Q1153.76 459.63, 1200 533.39Q1265.48 478.87, 1320 544.35Q1377.39 529.75, 1392 587.14Q1422.25 545.39, 1464 575.65z" fill="white"></path></g><defs><mask id="SvgjsMask1043"><rect width="1440" height="560" fill="#ffffff"></rect></mask><linearGradient x1="15.28%" y1="-39.29%" x2="84.72%" y2="139.29%" gradientUnits="userSpaceOnUse" id="SvgjsLinearGradient1044"><stop stop-color="#0e2a47" offset="0"></stop><stop stop-color="rgba(42, 119, 218, 1)" offset="1"></stop></linearGradient></defs></svg>